<mxfile host="app.diagrams.net" modified="2022-11-18T02:56:13.681Z" agent="5.0 (Windows NT 10.0; Win64; x64) AppleWebKit/537.36 (KHTML, like Gecko) Chrome/105.0.0.0 Safari/537.36" etag="w8--iZZzvk74j5kQD5Yp" version="20.5.3" type="github">
  <diagram id="jyAtCdqT7euu7xALxRPa" name="第 1 页">
    <mxGraphModel dx="2062" dy="1122" grid="1" gridSize="10" guides="1" tooltips="1" connect="1" arrows="1" fold="1" page="1" pageScale="1" pageWidth="827" pageHeight="1169" math="0" shadow="0">
      <root>
        <mxCell id="0" />
        <mxCell id="1" parent="0" />
        <mxCell id="O6PqJW8I40he0mp5_gxb-1" value="(用户1, fd=3)" style="rounded=0;whiteSpace=wrap;html=1;" vertex="1" parent="1">
          <mxGeometry x="260" y="380" width="120" height="30" as="geometry" />
        </mxCell>
        <mxCell id="O6PqJW8I40he0mp5_gxb-2" value="" style="rounded=0;whiteSpace=wrap;html=1;" vertex="1" parent="1">
          <mxGeometry x="450" y="320" width="190" height="210" as="geometry" />
        </mxCell>
        <mxCell id="O6PqJW8I40he0mp5_gxb-3" value="服务端描述符表项池" style="text;html=1;strokeColor=none;fillColor=none;align=center;verticalAlign=middle;whiteSpace=wrap;rounded=0;" vertex="1" parent="1">
          <mxGeometry x="450" y="320" width="140" height="30" as="geometry" />
        </mxCell>
        <mxCell id="O6PqJW8I40he0mp5_gxb-4" value="描述符表项" style="rounded=0;whiteSpace=wrap;html=1;" vertex="1" parent="1">
          <mxGeometry x="490" y="360" width="110" height="30" as="geometry" />
        </mxCell>
        <mxCell id="O6PqJW8I40he0mp5_gxb-5" value="描述符表项" style="rounded=0;whiteSpace=wrap;html=1;" vertex="1" parent="1">
          <mxGeometry x="490" y="400" width="110" height="30" as="geometry" />
        </mxCell>
        <mxCell id="O6PqJW8I40he0mp5_gxb-6" value="描述符表项" style="rounded=0;whiteSpace=wrap;html=1;" vertex="1" parent="1">
          <mxGeometry x="490" y="440" width="110" height="30" as="geometry" />
        </mxCell>
        <mxCell id="O6PqJW8I40he0mp5_gxb-7" value="空白表项" style="rounded=0;whiteSpace=wrap;html=1;" vertex="1" parent="1">
          <mxGeometry x="490" y="480" width="110" height="30" as="geometry" />
        </mxCell>
        <mxCell id="O6PqJW8I40he0mp5_gxb-8" style="edgeStyle=orthogonalEdgeStyle;rounded=0;orthogonalLoop=1;jettySize=auto;html=1;exitX=1;exitY=0.5;exitDx=0;exitDy=0;entryX=0;entryY=0.5;entryDx=0;entryDy=0;curved=1;" edge="1" parent="1" source="O6PqJW8I40he0mp5_gxb-1" target="O6PqJW8I40he0mp5_gxb-4">
          <mxGeometry relative="1" as="geometry" />
        </mxCell>
        <mxCell id="O6PqJW8I40he0mp5_gxb-11" style="edgeStyle=orthogonalEdgeStyle;curved=1;rounded=0;orthogonalLoop=1;jettySize=auto;html=1;exitX=1;exitY=0.5;exitDx=0;exitDy=0;entryX=0;entryY=0.5;entryDx=0;entryDy=0;" edge="1" parent="1" source="O6PqJW8I40he0mp5_gxb-9" target="O6PqJW8I40he0mp5_gxb-5">
          <mxGeometry relative="1" as="geometry" />
        </mxCell>
        <mxCell id="O6PqJW8I40he0mp5_gxb-9" value="(用户2, fd=3)" style="rounded=0;whiteSpace=wrap;html=1;" vertex="1" parent="1">
          <mxGeometry x="260" y="430" width="120" height="30" as="geometry" />
        </mxCell>
        <mxCell id="O6PqJW8I40he0mp5_gxb-12" style="edgeStyle=orthogonalEdgeStyle;curved=1;rounded=0;orthogonalLoop=1;jettySize=auto;html=1;exitX=1;exitY=0.5;exitDx=0;exitDy=0;entryX=0;entryY=0.5;entryDx=0;entryDy=0;" edge="1" parent="1" source="O6PqJW8I40he0mp5_gxb-10" target="O6PqJW8I40he0mp5_gxb-6">
          <mxGeometry relative="1" as="geometry" />
        </mxCell>
        <mxCell id="O6PqJW8I40he0mp5_gxb-10" value="(用户2, fd=4)" style="rounded=0;whiteSpace=wrap;html=1;" vertex="1" parent="1">
          <mxGeometry x="260" y="480" width="120" height="30" as="geometry" />
        </mxCell>
      </root>
    </mxGraphModel>
  </diagram>
</mxfile>
